<?xml version="1.0" standalone="no"?>
<!DOCTYPE svg PUBLIC "-//W3C//DTD SVG 20010904//EN"
 "http://www.w3.org/TR/2001/REC-SVG-20010904/DTD/svg10.dtd">
<svg version="1.0" xmlns="http://www.w3.org/2000/svg"
 width="225.000000pt" height="225.000000pt" viewBox="0 0 225.000000 225.000000"
 preserveAspectRatio="xMidYMid meet">
<metadata>
Created by potrace 1.14, written by Peter Selinger 2001-2017
</metadata>
<g transform="translate(0.000000,225.000000) scale(0.100000,-0.100000)"
fill="#000000" stroke="none">
<path d="M945 2240 c-165 -36 -291 -136 -363 -287 -34 -73 -36 -84 -40 -198
-6 -158 14 -237 107 -433 100 -213 132 -330 147 -549 l7 -101 -195 -4 -195 -3
-69 -35 c-86 -44 -146 -115 -171 -200 -15 -51 -21 -60 -41 -60 -38 0 -86 -28
-105 -59 -13 -22 -17 -53 -17 -130 l0 -101 34 -38 34 -37 941 -3 c1038 -3 991
-5 1031 60 18 29 21 46 18 135 -3 100 -4 104 -34 134 -21 21 -44 32 -72 36
-39 5 -43 8 -53 47 -24 92 -106 188 -197 229 -42 19 -69 22 -241 25 l-194 4 6
106 c4 59 9 122 13 139 l6 33 37 -29 c47 -37 123 -75 190 -95 83 -25 239 -21
322 7 190 65 335 224 379 416 19 83 8 231 -24 315 -101 265 -372 409 -661 351
-29 -6 -31 -3 -57 53 -51 110 -158 205 -283 251 -66 25 -196 35 -260 21z m214
-79 c125 -39 218 -120 274 -239 27 -58 32 -80 35 -168 5 -131 -18 -225 -94
-385 l-57 -119 -278 0 -277 0 -52 108 c-29 59 -61 132 -71 162 -27 76 -40 215
-28 293 39 254 306 424 548 348z m640 -316 c222 -59 371 -250 371 -474 -1 -91
-12 -145 -46 -218 -31 -65 -117 -160 -184 -203 -178 -114 -450 -90 -588 53
-32 33 -33 35 -21 81 6 25 13 46 16 46 3 0 26 -21 51 -47 26 -25 76 -60 112
-77 60 -29 73 -31 170 -31 97 0 110 2 170 31 133 63 220 190 228 333 10 174
-76 319 -233 392 -75 36 -170 47 -244 29 -29 -7 -53 -11 -55 -9 -2 2 -6 23 -9
46 -5 41 -4 42 32 51 55 15 169 14 230 -3z m24 -179 c110 -53 178 -155 185
-278 9 -155 -75 -282 -220 -334 -57 -20 -154 -20 -215 0 -63 21 -139 81 -169
132 l-24 40 59 122 c53 110 73 168 98 287 7 35 13 41 48 52 64 20 174 11 238
-21z m-560 -567 c-26 -91 -53 -279 -53 -370 l0 -59 -169 0 -168 0 -7 88 c-13
167 -41 328 -71 405 -7 16 9 17 242 17 l250 0 -24 -81z m446 -534 c68 -37 110
-92 135 -172 l7 -23 -810 0 c-660 0 -811 2 -811 13 0 30 55 119 92 152 77 66
59 64 728 62 l605 -2 54 -30z m273 -282 c15 -13 18 -31 18 -96 0 -131 114
-117 -961 -117 -830 0 -929 2 -943 16 -24 24 -23 189 2 203 11 7 332 10 941
11 846 0 926 -1 943 -17z"/>
<path d="M1738 1393 l-118 -118 -53 53 c-53 53 -90 66 -101 36 -3 -8 -2 -23 3
-32 14 -26 138 -142 152 -142 13 0 265 244 280 272 5 9 6 24 3 32 -14 37 -50
15 -166 -101z"/>
</g>
</svg>
